<?xml version="1.0"?>
<svg xmlns="http://www.w3.org/2000/svg" xmlns:xlink="http://www.w3.org/1999/xlink"  version="1.1" width="512" height="512" x="0" y="0" viewBox="0 0 24 24" style="enable-background:new 0 0 512 512" xml:space="preserve" class=""><g><linearGradient id="paint0_linear_1796_28438" gradientUnits="userSpaceOnUse" x1="12" x2="12" y1="1.25" y2="21.7"><stop stop-opacity="1" stop-color="#aeaeae" offset="0.3667953667953668"/><stop stop-opacity="1" stop-color="#00f7ff" offset="1"/></linearGradient><path clip-rule="evenodd" d="m8.42914 3.86983c1.01205-.70593 2.24206-1.11983 3.57096-1.11983s2.5588.4139 3.5709 1.11983c.3397.23697.8072.15366 1.0442-.18607s.1537-.80724-.1861-1.04421c-1.2556-.87582-2.7834-1.38955-4.429-1.38955s-3.17349.51373-4.42911 1.38955c-.33973.23697-.42303.70448-.18606 1.04421s.70448.42304 1.04421.18607zm3.57076 1.88017c-.5932 0-1.1472.15825-1.6245.43433-.3585.20741-.81732.08489-1.02472-.27366-.20741-.35854-.08489-.81734.27366-1.02475.69946-.40459 1.51156-.63592 2.37556-.63592.8639 0 1.6761.23133 2.3755.63592.3586.20741.4811.66621.2737 1.02475-.2074.35855-.6662.48107-1.0248.27366-.4772-.27608-1.0312-.43433-1.6244-.43433zm-.7499 4.0021c-1.68201-1.06458-3.9496-1.55603-5.65454-1.74333-.87832-.0965-1.59546.61658-1.59546 1.49637v8.76146c0 .8798.71714 1.5932 1.59546 1.6897 1.70494.1873 3.97253.6787 5.65454 1.7433zm1.5 11.9475c1.682-1.0646 3.9496-1.556 5.6545-1.7433.8784-.0965 1.5955-.8099 1.5955-1.6897v-8.76146c0-.87979-.7171-1.59287-1.5955-1.49637-1.7049.1873-3.9725.67875-5.6545 1.74333z" fill="url(#paint0_linear_1796_28438)" fill-rule="evenodd" data-original="url(#paint0_linear_1796_28438)" class=""/></g></svg>
